<svg xmlns="http://www.w3.org/2000/svg" viewBox="0 0 108 108">
	<path fill="#fff" d="M46.9,83.5c7.1,0,12.9-5.8,12.9-12.9c0-0.2,0-0.4,0-0.6l15.5-11.1c0.1,0,0.3,0,0.4,0c9.5,0,17.2-7.7,17.2-17.2 c0-9.5-7.7-17.2-17.2-17.2c-9.5,0-17.2,7.7-17.2,17.2c0,0.1,0,0.1,0,0.2L47.6,57.7c-0.2,0-0.5,0-0.7,0c-2.7,0-5.2,0.8-7.3,2.2 L15.3,49.8c-0.1,1.2-0.2,2.4-0.2,3.6c0,4.3,0.6,8.5,1.7,12.5l17.4,7.2C35.4,79,40.7,83.5,46.9,83.5z M75.7,30.3 c6.3,0,11.5,5.1,11.5,11.5S82,53.2,75.7,53.2S64.2,48,64.2,41.7S69.4,30.3,75.7,30.3z M43.8,77.1c3.6,1.5,7.8-0.2,9.3-3.8 c1.5-3.6-0.2-7.8-3.8-9.3l-5.8-2.4c2.2-0.8,4.8-0.9,7.1,0.1c2.4,1,4.2,2.9,5.2,5.3c1,2.4,1,5,0,7.4c-2.1,4.9-7.7,7.3-12.7,5.2 c-2.3-1-4-2.7-5-4.7L43.8,77.1z"/>
	<path fill="#fff" d="M75.7,50.3c4.8,0,8.6-3.9,8.6-8.6c0-4.8-3.9-8.6-8.6-8.6c-4.8,0-8.6,3.9-8.6,8.6C67.1,46.4,71,50.3,75.7,50.3z"/>
</svg>
